<svg width="866" height="1117" viewBox="0 0 866 1117" fill="none" xmlns="http://www.w3.org/2000/svg">
<g clip-path="url(#clip0_106_37)">
<rect width="866" height="1117" fill="white"/>
<circle cx="-312.408" cy="451.592" r="457" transform="rotate(13.9328 -312.408 451.592)" fill="#031E3B"/>
<circle cx="38" cy="38" r="38" transform="matrix(0.970579 0.240783 0.240783 -0.970579 2.44238 204.122)" fill="#FEC422"/>
<path fill-rule="evenodd" clip-rule="evenodd" d="M524.746 -207.125C528.453 -242.276 535.63 -277.131 546.277 -311.134L896.866 -661.723C930.869 -672.37 965.724 -679.547 1000.88 -683.254L524.746 -207.125ZM689.745 238.888C704.089 252.441 718.998 265.05 734.394 276.717L1484.72 -473.606C1473.05 -489.002 1460.44 -503.911 1446.89 -518.255L689.745 238.888ZM843.784 340.7C825.114 332.59 806.812 323.366 788.979 313.027L1521.03 -419.021C1531.37 -401.188 1540.59 -382.886 1548.7 -364.216L843.784 340.7ZM910.76 364.618C933.114 370.957 955.8 375.816 978.662 379.194L1587.19 -229.338C1583.82 -252.2 1578.96 -274.886 1572.62 -297.24L910.76 364.618ZM1155.21 376.015C1125.01 381.597 1094.43 384.572 1063.81 384.937L1592.94 -144.186C1592.57 -113.573 1589.6 -82.9857 1584.01 -52.7854L1155.21 376.015ZM1290.27 331.852C1342.98 306.408 1392.38 271.825 1436.1 228.102C1479.82 184.379 1514.41 134.978 1539.85 82.2719L1290.27 331.852ZM1400.05 -562.306L645.694 192.045C632.977 176.803 621.239 161.021 610.48 144.781L1352.78 -597.52C1369.02 -586.761 1384.8 -575.023 1400.05 -562.306ZM577.262 87.104L1295.1 -630.738C1276.19 -640.104 1256.84 -648.285 1237.17 -655.279L552.721 29.1674C559.715 48.8438 567.896 68.193 577.262 87.104ZM532.87 -41.8765C527.92 -65.863 524.627 -90.1232 522.989 -114.474L1093.53 -685.011C1117.88 -683.373 1142.14 -680.08 1166.12 -675.13L532.87 -41.8765Z" fill="#031E3B"/>
<path d="M613.365 835.539L893.913 914.295L685.434 1117.88L613.365 835.539Z" fill="#FEC422" fill-opacity="0.5"/>
<path d="M718.502 929.606L999.05 1008.36L790.571 1211.95L718.502 929.606Z" fill="#FEC422" fill-opacity="0.5"/>
<path d="M827.603 1022.43L1108.15 1101.19L899.672 1304.77L827.603 1022.43Z" fill="#FEC422" fill-opacity="0.5"/>
</g>
<defs>
<clipPath id="clip0_106_37">
<rect width="866" height="1117" fill="white"/>
</clipPath>
</defs>
</svg>
